<?xml version="1.0" encoding="utf-8"?>
<!DOCTYPE svg PUBLIC "-//W3C//DTD SVG 1.1//EN" "http://www.w3.org/Graphics/SVG/1.1/DTD/svg11.dtd">
<svg version="1.1" id="icon_wordpress" xmlns="http://www.w3.org/2000/svg" xmlns:xlink="http://www.w3.org/1999/xlink" x="0px"
	 y="0px" width="24px" height="24px" viewBox="0 0 24 24" enable-background="new 0 0 24 24" xml:space="preserve">
<g opacity="0.7">
	<g>
		<path fill="#777777" d="M1.421,11.504c0,3.394,1.972,6.326,4.834,7.717L2.163,8.014C1.686,9.079,1.421,10.261,1.421,11.504z"/>
		<path fill="#777777" d="M15.784,11.071c0-1.062-0.378-1.794-0.706-2.367c-0.435-0.707-0.841-1.304-0.841-2.011
			c0-0.788,0.595-1.521,1.437-1.521c0.038,0,0.074,0.005,0.112,0.007c-1.528-1.397-3.559-2.251-5.793-2.251
			c-2.994,0-5.63,1.538-7.166,3.866c0.201,0.005,0.392,0.011,0.552,0.011c0.897,0,2.285-0.11,2.285-0.11
			c0.465-0.027,0.521,0.65,0.059,0.704c0,0-0.465,0.056-0.981,0.083l3.124,9.289l1.876-5.628L8.406,7.482
			c-0.46-0.027-0.898-0.082-0.898-0.082C7.045,7.374,7.1,6.667,7.562,6.695c0,0,1.415,0.11,2.26,0.11c0.895,0,2.286-0.11,2.286-0.11
			c0.462-0.027,0.516,0.65,0.056,0.706c0,0-0.465,0.054-0.984,0.082l3.099,9.22l0.858-2.861
			C15.504,12.655,15.784,11.806,15.784,11.071z"/>
		<path fill="#777777" d="M10.147,12.255l-2.573,7.475c0.768,0.229,1.581,0.351,2.422,0.351c1,0,1.958-0.173,2.847-0.485
			c-0.022-0.038-0.044-0.075-0.062-0.118L10.147,12.255z"/>
		<path fill="#777777" d="M17.522,7.389c0.036,0.274,0.059,0.567,0.059,0.882c0,0.869-0.16,1.848-0.652,3.071l-2.617,7.575
			c2.549-1.487,4.265-4.25,4.265-7.413C18.573,10.012,18.193,8.611,17.522,7.389z"/>
		<path fill="#777777" d="M9.997,1.507C4.484,1.507,0,5.99,0,11.504s4.484,9.998,9.997,9.998c5.511,0,9.997-4.484,9.997-9.998
			S15.508,1.507,9.997,1.507z M9.997,21.043c-5.258,0-9.54-4.28-9.54-9.539c0-5.261,4.28-9.54,9.54-9.54
			c5.259,0,9.537,4.278,9.537,9.54C19.534,16.763,15.256,21.043,9.997,21.043z"/>
	</g>
</g>
</svg>
