<?xml version="1.0" standalone="no"?>
<!DOCTYPE svg PUBLIC "-//W3C//DTD SVG 20010904//EN"
 "http://www.w3.org/TR/2001/REC-SVG-20010904/DTD/svg10.dtd">
<svg version="1.0" xmlns="http://www.w3.org/2000/svg"
 width="200.000000pt" height="70.000000pt" viewBox="0 0 200.000000 70.000000"
 preserveAspectRatio="xMidYMid meet">
<metadata>
Created by potrace 1.11, written by Peter Selinger 2001-2013
</metadata>
<g transform="translate(0.000000,70.000000) scale(0.100000,-0.100000)"
fill="#000000" stroke="none">
<path d="M918 529 c-16 -9 -18 -29 -18 -178 0 -184 2 -192 56 -191 16 0 44 -2
62 -6 47 -9 84 10 149 80 31 33 53 52 49 41 -18 -43 -18 -56 0 -76 40 -45 103
-61 146 -38 14 8 23 8 31 0 15 -15 50 -14 65 1 8 8 12 62 12 179 0 185 -5 202
-58 183 -22 -8 -28 -17 -32 -51 -4 -35 -8 -41 -20 -33 -39 25 -103 5 -154 -49
l-30 -31 -35 34 c-47 44 -72 56 -115 56 -34 0 -36 2 -36 33 0 51 -31 71 -72
46z"/>
<path d="M126 509 c-13 -20 -10 -34 39 -176 29 -86 60 -162 69 -171 12 -12 22
-14 43 -6 23 8 31 21 51 84 12 41 25 76 27 78 2 2 13 -28 25 -67 22 -74 40
-101 69 -101 31 0 47 31 99 189 53 160 55 191 12 191 -39 0 -50 -14 -75 -94
-14 -44 -28 -88 -31 -96 -4 -8 -17 26 -31 75 -28 101 -36 115 -68 115 -32 0
-40 -14 -66 -112 -13 -49 -26 -85 -30 -80 -3 4 -18 46 -33 93 -15 51 -32 89
-42 93 -27 11 -42 7 -58 -15z"/>
<path d="M674 426 c-74 -33 -107 -109 -79 -182 9 -24 30 -53 45 -64 67 -48
191 -28 198 32 4 31 -25 46 -57 29 -29 -16 -77 -13 -91 4 -11 13 -2 15 72 15
52 0 89 5 96 12 27 27 2 112 -42 141 -36 24 -104 30 -142 13z"/>
<path d="M1522 428 c-7 -7 -12 -24 -12 -38 0 -37 18 -50 68 -50 l44 0 -56 -62
c-93 -104 -78 -128 75 -128 114 0 139 9 139 50 0 32 -28 50 -77 50 l-46 0 61
64 c34 35 62 68 62 73 0 5 -7 19 -16 31 -14 20 -23 22 -123 22 -70 0 -111 -4
-119 -12z"/>
</g>
</svg>
